<?xml version="1.0" encoding="iso-8859-1"?>
<!-- Uploaded to: SVG Repo, www.svgrepo.com, Generator: SVG Repo Mixer Tools -->
<svg height="800px" width="800px" version="1.1" id="Layer_1" xmlns="http://www.w3.org/2000/svg" xmlns:xlink="http://www.w3.org/1999/xlink" 
	 viewBox="0 0 512 512" xml:space="preserve">
<path d="M222.379,30.208c-3.157,3.243-6.144,6.485-9.045,9.643v25.941c1.621-1.963,3.243-3.84,4.949-5.803
	c4.949-5.803,10.325-11.605,16.043-17.408C230.485,38.485,226.56,34.304,222.379,30.208z M272.299,0.597
	C266.923,0.171,261.461,0,256,0c-25.685,0-50.603,3.84-73.984,10.923C125.867,27.904,77.824,63.659,45.227,110.933
	c-3.84,5.547-7.424,11.179-10.837,17.067c-19.2,33.024-31.147,70.656-33.707,110.933C0.171,244.565,0,250.283,0,256
	c0,39.765,9.045,77.397,25.344,110.933c2.816,5.888,5.803,11.52,9.045,17.067c19.285,33.365,45.909,61.952,77.653,83.541
	c23.04,15.787,48.811,27.904,76.459,35.328C210.005,508.843,232.619,512,256,512c70.571,0,134.571-28.672,180.907-75.093
	C483.328,390.571,512,326.571,512,256C512,120.32,405.931,8.96,272.299,0.597z M494.677,247.467H390.229
	c0-2.816-0.085-5.717-0.256-8.533c-1.28-34.987-9.728-69.205-25.003-102.4h97.792C481.877,169.387,493.312,207.189,494.677,247.467z
	 M361.472,326.144c-0.768,2.56-1.621,5.291-2.475,7.765c-0.085,0.256-0.085,0.512-0.256,0.683c-0.597,1.963-1.28,3.925-2.048,5.888
	c0,0.256-0.085,0.427-0.171,0.597c-0.768,2.219-1.621,4.437-2.475,6.656c-0.256,0.597-0.427,1.195-0.768,1.877
	c-0.597,1.536-1.195,2.987-1.877,4.523c-0.939,2.56-2.048,5.12-3.243,7.68c-0.597,1.365-1.195,2.731-1.877,4.096
	c-0.085,0.341-0.171,0.683-0.427,1.024c-1.28,2.901-2.645,5.717-4.011,8.533h-77.312V264.533h108.288
	c-0.171,2.56-0.341,5.12-0.597,7.595c-0.085,1.621-0.256,3.157-0.512,4.779c-0.427,4.011-1.024,8.107-1.621,12.117
	c-0.427,3.072-1.024,6.144-1.621,9.216c-0.341,1.621-0.597,3.243-1.024,4.864c-0.512,2.389-1.024,4.864-1.621,7.253
	c-0.597,2.133-1.109,4.352-1.707,6.485C363.349,320,362.411,323.157,361.472,326.144z M304.64,436.139
	c-1.792,2.389-3.499,4.693-5.205,6.912c-1.621,2.219-3.328,4.352-5.12,6.485c-1.707,2.133-3.328,4.181-4.949,6.144
	c-6.827,8.277-13.227,15.445-18.688,21.419h-0.085c-2.133,2.304-4.181,4.437-6.059,6.315v-90.88h68.352
	C323.84,408.661,314.112,423.253,304.64,436.139z M238.336,473.515c-3.584-3.925-7.424-8.277-11.52-13.141
	c-4.267-5.12-8.875-10.837-13.483-16.981c-2.048-2.645-4.011-5.376-6.059-8.192c-1.536-2.048-3.072-4.181-4.608-6.4
	c-2.133-3.072-4.267-6.229-6.4-9.472c-5.547-8.363-11.008-17.323-16.299-26.795h67.499v90.795c-0.171-0.256-0.427-0.427-0.683-0.683
	C244.224,480,241.408,476.928,238.336,473.515z M166.656,365.995c-1.024-2.304-2.048-4.608-3.072-6.997
	c-1.536-3.499-2.987-6.997-4.352-10.496c-0.939-2.475-1.877-5.035-2.731-7.595c-2.219-5.803-4.096-11.691-5.888-17.749
	c-1.024-3.584-1.963-7.168-2.901-10.752c-0.085-0.512-0.256-1.024-0.427-1.621c-0.683-2.987-1.365-5.888-1.963-8.96
	c-0.256-1.195-0.512-2.475-0.768-3.669c-0.683-3.584-1.365-7.339-1.877-11.008c-1.195-7.424-1.963-14.933-2.475-22.613h107.264
	v110.933h-76.373c-1.365-2.816-2.731-5.632-4.011-8.533C166.912,366.592,166.741,366.336,166.656,365.995z M140.032,238.933v-0.085
	c-0.085-0.256-0.085-0.341,0-0.597c0.085-1.963,0.171-3.925,0.341-5.888c0.085-2.133,0.256-4.352,0.512-6.571
	c0.256-3.243,0.683-6.485,1.109-9.728c0.427-3.243,0.939-6.485,1.536-9.728c0.171-0.853,0.341-1.877,0.512-2.731
	c0.597-3.413,1.28-6.827,2.133-10.24c0.427-2.133,1.024-4.181,1.536-6.315c0.597-2.389,1.28-4.779,1.963-7.168
	c0.512-1.877,1.109-3.755,1.707-5.632c1.109-3.499,2.304-7.083,3.584-10.581c3.243-9.131,7.168-18.176,11.52-27.136h80.981v110.933
	H139.776C139.776,244.565,139.861,241.749,140.032,238.933z M180.651,110.933c1.195-1.963,2.389-3.925,3.669-5.888
	c3.669-5.888,7.68-11.776,11.947-17.579c5.291-7.253,10.923-14.507,17.067-21.675c1.621-1.963,3.243-3.84,4.949-5.803
	c4.949-5.803,10.325-11.605,16.043-17.408c1.195-1.28,2.475-2.56,3.84-3.925c0.171-0.256,0.427-0.512,0.683-0.768
	c2.219-2.219,4.523-4.437,6.912-6.741c0.171-0.171,0.427-0.427,0.597-0.597c0.341-0.341,0.768-0.768,1.109-1.109v90.027h-71.936
	C177.152,116.565,178.859,113.749,180.651,110.933z M336.896,119.467h-72.363V29.952c18.091,17.152,33.963,34.645,47.445,52.395
	c1.536,1.963,2.987,3.925,4.437,5.888c3.499,4.693,6.827,9.472,9.899,14.251c1.877,2.816,3.669,5.632,5.461,8.448
	S335.275,116.651,336.896,119.467z M373.163,247.467H264.533V136.533h81.408c3.072,6.229,5.888,12.544,8.448,18.859
	c1.707,4.181,3.328,8.363,4.779,12.629c0.768,2.133,1.451,4.267,2.133,6.315c0.683,2.133,1.365,4.267,1.963,6.4l1.792,6.4
	c0.597,2.133,1.109,4.267,1.621,6.4c0.512,2.133,0.939,4.267,1.451,6.485c0.427,2.133,0.853,4.267,1.195,6.4
	c0.683,3.755,1.28,7.509,1.792,11.349c0.256,1.621,0.427,3.243,0.597,4.864c0.171,1.621,0.341,3.243,0.512,4.864
	c0.341,3.84,0.597,7.595,0.683,11.435C373.077,241.749,373.163,244.651,373.163,247.467z M355.925,39.083
	c10.581,4.864,20.821,10.496,30.464,16.896c1.109,0.683,2.133,1.451,3.157,2.048c1.792,1.195,3.499,2.389,5.205,3.755
	c1.621,1.109,3.243,2.219,4.779,3.413c5.12,3.84,10.155,7.936,14.933,12.288c0.085,0,0.171,0.085,0.341,0.256v0.085
	c1.451,1.195,2.816,2.475,4.181,3.755c0.256,0.171,0.512,0.427,0.768,0.683c2.56,2.389,4.949,4.779,7.339,7.253
	c3.584,3.584,6.997,7.339,10.325,11.264c1.877,2.219,3.84,4.523,5.632,6.827c0.683,0.853,1.365,1.707,2.048,2.56
	c2.304,2.987,4.608,6.144,6.827,9.301h-95.488c-1.536-2.816-3.157-5.717-4.779-8.533c-0.171-0.341-0.427-0.768-0.683-1.109
	c-1.621-2.901-3.413-5.803-5.205-8.704c-2.731-4.437-5.632-8.875-8.704-13.312c-2.645-3.84-5.376-7.68-8.192-11.435
	c-6.827-9.216-14.251-18.347-22.272-27.392c-1.792-2.133-3.669-4.181-5.632-6.315c-3.328-3.669-6.741-7.339-10.411-10.923
	c-2.048-2.048-4.096-4.181-6.229-6.229c-1.451-1.451-2.901-2.987-4.437-4.437l-0.512-0.512h-0.085
	c-0.853-0.939-1.707-1.707-2.56-2.56c2.901,0.256,5.803,0.597,8.704,0.939c2.901,0.341,5.717,0.768,8.619,1.28
	c2.475,0.341,4.864,0.768,7.339,1.28c1.621,0.256,3.157,0.597,4.693,0.939c5.632,1.195,11.179,2.56,16.725,4.181
	c2.901,0.853,5.888,1.792,8.789,2.816c2.901,0.939,5.803,1.963,8.619,3.072c2.475,0.939,4.949,1.877,7.339,2.901
	c0.427,0.171,0.853,0.341,1.195,0.512C351.147,36.949,353.536,37.973,355.925,39.083z M68.523,108.203
	c1.707-2.219,3.499-4.437,5.461-6.571c0.341-0.597,0.853-1.109,1.451-1.707c0.939-1.109,1.877-2.219,2.901-3.243
	c0.085-0.341,0.427-0.597,0.768-0.939c1.792-2.048,3.584-4.011,5.547-5.973c2.645-2.731,5.376-5.376,8.107-7.851
	c1.195-1.28,2.475-2.389,3.669-3.328c1.877-1.792,3.755-3.413,5.632-5.035c1.451-1.28,2.901-2.475,4.437-3.584
	c1.195-1.109,2.475-2.133,3.755-2.987c1.621-1.365,3.243-2.56,4.864-3.755c5.547-4.096,11.264-7.936,17.237-11.435
	c1.024-0.597,1.963-1.195,2.987-1.792c3.669-2.219,7.339-4.267,11.093-6.144c1.877-1.024,3.84-2.048,5.803-2.901
	c0.683-0.341,1.365-0.683,2.133-1.024c3.157-1.621,6.4-3.072,9.728-4.352c2.731-1.109,5.461-2.219,8.192-3.243
	c1.28-0.597,2.645-1.024,4.011-1.451c1.792-0.768,3.669-1.365,5.547-1.963c2.987-1.024,5.973-1.877,9.045-2.731
	c1.792-0.512,3.584-1.024,5.376-1.451c12.288-3.243,25.003-5.461,38.059-6.656h0.341c-0.085,0.085-0.085,0.085-0.171,0.171
	c-2.048,1.963-4.096,3.925-6.144,5.973c-2.048,1.963-4.011,3.925-5.973,5.973c-3.157,3.243-6.144,6.485-9.045,9.643
	c-2.816,2.987-5.547,6.059-8.192,9.131c-0.341,0.341-0.683,0.683-0.939,1.109c-2.816,3.072-5.376,6.229-7.936,9.387
	c-2.731,3.328-5.376,6.656-7.936,9.984c-8.533,11.093-16.213,22.357-23.125,33.707c-1.536,2.56-2.987,5.12-4.523,7.68v0.085
	c-1.621,2.816-3.157,5.717-4.693,8.533H60.075c2.048-2.901,4.096-5.717,6.315-8.533C67.072,109.995,67.755,109.141,68.523,108.203z
	 M18.347,232.021c0.427-4.352,1.024-8.704,1.621-12.971c0.341-2.133,0.683-4.267,1.109-6.315c0.256-1.536,0.512-2.987,0.853-4.523
	c0.085-0.512,0.171-1.024,0.341-1.536c0.427-2.475,1.024-4.864,1.621-7.253c0.683-2.731,1.365-5.461,2.133-8.107
	c1.536-5.376,3.243-10.667,5.12-15.872c1.195-3.413,2.475-6.741,3.84-10.069c1.365-3.328,2.816-6.656,4.352-9.899
	c2.987-6.485,6.315-12.8,9.899-18.944h98.304c-1.024,2.219-2.048,4.523-2.987,6.741c-1.877,4.523-3.669,9.045-5.376,13.568
	c-2.389,6.485-4.523,12.971-6.315,19.541c-1.109,3.84-2.133,7.765-3.072,11.605c-1.024,4.181-1.877,8.363-2.645,12.629
	c-0.768,3.84-1.365,7.68-1.877,11.52c-0.171,0.768-0.256,1.536-0.341,2.304c-0.512,3.499-0.853,7.083-1.195,10.581
	c0,0.597-0.085,1.28-0.171,1.963c-0.341,4.011-0.512,7.936-0.683,11.947c-0.085,2.816-0.171,5.717-0.171,8.533H17.323
	c0.085-2.901,0.256-5.717,0.427-8.533C17.92,236.629,18.091,234.325,18.347,232.021z M41.557,361.131
	c-2.901-5.888-5.547-11.861-8.021-18.005c-1.621-4.011-3.072-8.192-4.437-12.373c-1.451-4.523-2.816-9.045-4.011-13.568
	c-0.512-1.877-1.024-3.755-1.451-5.632c-0.512-2.133-1.024-4.352-1.451-6.485c-0.512-2.219-0.939-4.437-1.28-6.656
	c-0.427-2.219-0.768-4.437-1.109-6.656c-1.28-8.875-2.133-18.005-2.475-27.221h105.813c0.256,4.608,0.683,9.301,1.195,13.824
	c0.171,2.048,0.427,4.011,0.683,5.973c0.256,2.56,0.683,5.035,1.109,7.595c0.341,2.219,0.683,4.437,1.109,6.741
	c1.195,6.656,2.645,13.227,4.267,19.627c0.427,1.707,0.853,3.499,1.365,5.205c2.219,8.448,4.864,16.725,7.851,24.747
	c0.597,1.792,1.28,3.584,1.963,5.291c0.683,1.877,1.365,3.755,2.219,5.632c0.683,1.792,1.365,3.584,2.048,5.291
	c0.341,0.853,0.768,1.707,1.109,2.475c1.195,2.901,2.475,5.717,3.755,8.533H49.237c-1.621-2.816-3.243-5.632-4.693-8.533
	C43.52,365.056,42.496,363.093,41.557,361.131z M186.197,484.437c-2.219-0.683-4.352-1.365-6.485-2.133
	c-2.731-0.853-5.461-1.792-8.107-2.901c-2.731-1.024-5.376-2.048-8.021-3.157c-1.024-0.427-2.048-0.853-2.987-1.28
	c-2.56-1.109-5.035-2.304-7.595-3.499c-3.243-1.536-6.4-3.157-9.557-4.864c-2.389-1.28-4.779-2.56-7.083-3.925
	c-3.669-2.133-7.253-4.352-10.752-6.656c-1.536-0.939-2.987-1.963-4.437-2.987c-5.376-3.669-10.667-7.595-15.701-11.776
	c-1.365-1.109-2.731-2.133-4.011-3.328c-4.779-4.011-9.472-8.277-13.909-12.8c-1.707-1.621-3.328-3.328-4.949-5.035
	c-4.779-4.949-9.216-10.155-13.483-15.531l-2.901-3.755c-2.133-2.731-4.181-5.461-6.144-8.277h100.096
	c6.059,11.691,12.544,22.699,19.2,32.853c1.451,2.304,2.987,4.608,4.523,6.827c4.096,6.144,8.277,12.032,12.373,17.493
	c0.939,1.28,1.963,2.645,2.901,3.84c1.621,2.133,3.243,4.181,4.864,6.229c1.536,2.048,3.157,4.011,4.693,5.888
	c1.536,1.963,3.072,3.84,4.608,5.632c0.597,0.597,1.109,1.28,1.621,1.877c6.997,8.192,13.397,15.104,18.773,20.651
	c-4.523-0.427-8.96-0.939-13.397-1.621c-0.597-0.085-1.28-0.171-1.963-0.341c-3.413-0.512-6.656-1.109-9.984-1.792
	c-3.072-0.597-6.144-1.28-9.216-2.048c-2.133-0.512-4.267-1.109-6.4-1.707C190.549,485.717,188.331,485.12,186.197,484.437z
	 M278.443,493.824c0.512-0.512,1.024-1.109,1.536-1.621c6.827-6.997,15.019-15.872,23.808-26.539
	c0.341-0.341,0.683-0.768,1.024-1.195c15.445-19.029,32.853-43.349,47.872-71.936h99.243
	C412.757,448.597,350.123,487.168,278.443,493.824z M462.677,375.723c-0.341-0.085-0.683-0.256-1.109-0.256H361.131
	c1.28-2.816,2.56-5.632,3.755-8.533c0.085-0.171,0.171-0.341,0.256-0.512c1.024-2.389,2.048-4.779,2.901-7.253
	c1.195-2.816,2.304-5.632,3.328-8.533c0.256-0.341,0.341-0.683,0.427-1.109c1.365-3.584,2.731-7.339,3.84-11.093
	c1.109-3.243,2.133-6.485,2.987-9.728c1.024-3.413,1.963-6.912,2.901-10.411c1.451-5.717,2.731-11.691,3.925-17.664
	c0.512-2.901,1.024-5.803,1.451-8.704c0.768-4.437,1.365-8.96,1.792-13.568c0.512-4.523,0.939-9.216,1.195-13.824h104.789
	C493.312,304.896,481.792,342.784,462.677,375.723z M222.379,30.208c-3.157,3.243-6.144,6.485-9.045,9.643v25.941
	c1.621-1.963,3.243-3.84,4.949-5.803c4.949-5.803,10.325-11.605,16.043-17.408C230.485,38.485,226.56,34.304,222.379,30.208z"/>
<path style="fill:#0091EA;" d="M336.896,119.467h-72.363V29.952C295.083,58.88,319.147,88.747,336.896,119.467z"/>
<path style="fill:#2979FF;" d="M451.925,119.467h-25.515c-19.285-33.365-45.909-61.952-77.653-83.541
	c2.389,1.024,4.779,2.048,7.168,3.157c10.581,4.864,20.821,10.496,30.464,16.896c1.109,0.683,2.133,1.451,3.157,2.048
	c1.792,1.195,3.499,2.389,5.205,3.755c1.621,1.109,3.243,2.219,4.779,3.413c5.12,3.84,10.155,7.936,14.933,12.288
	c0.085,0,0.256,0.085,0.341,0.256v0.085c1.451,1.195,2.816,2.475,4.181,3.755c0.256,0.171,0.512,0.427,0.768,0.683
	c2.475,2.304,4.949,4.779,7.339,7.253c3.584,3.584,6.997,7.339,10.325,11.264c1.877,2.219,3.755,4.523,5.632,6.827
	c0.683,0.853,1.365,1.707,2.048,2.56C447.403,113.237,449.707,116.309,451.925,119.467z"/>
<path style="fill:#0091EA;" d="M426.411,119.467h-69.973c-1.536-2.816-3.157-5.717-4.779-8.533
	c-0.171-0.341-0.427-0.768-0.683-1.109c-1.621-2.901-3.413-5.803-5.205-8.704c-2.731-4.437-5.632-8.875-8.704-13.312
	c-2.56-3.84-5.291-7.595-8.192-11.435c-6.827-9.216-14.251-18.347-22.272-27.392c-1.792-2.133-3.669-4.181-5.632-6.315
	c-3.328-3.669-6.741-7.339-10.411-10.923c-1.963-2.133-4.096-4.267-6.229-6.229c-1.451-1.621-2.901-2.987-4.437-4.437l-0.512-0.512
	h-0.085c-0.853-0.939-1.707-1.707-2.56-2.56c2.901,0.256,5.803,0.597,8.704,0.939c2.901,0.341,5.717,0.768,8.619,1.28
	c2.475,0.341,4.864,0.768,7.339,1.28c1.621,0.256,3.157,0.597,4.693,0.939c5.632,1.195,11.179,2.56,16.725,4.181
	c2.901,0.853,5.888,1.792,8.789,2.816c2.901,0.939,5.803,1.963,8.619,3.072c2.475,0.939,4.949,1.877,7.339,2.901
	c0.427,0.171,0.853,0.341,1.195,0.512C380.501,57.515,407.125,86.101,426.411,119.467z"/>
<path style="fill:#2979FF;" d="M494.677,247.467H460.8c0-39.765-9.045-77.397-25.344-110.933h27.307
	C481.877,169.387,493.312,207.189,494.677,247.467z"/>
<g>
	<path style="fill:#0091EA;" d="M460.8,247.467h-70.571c0-2.816-0.085-5.717-0.256-8.533c-1.28-34.987-9.728-69.205-25.003-102.4
		h70.485C451.755,170.069,460.8,207.701,460.8,247.467z"/>
	<path style="fill:#0091EA;" d="M373.163,247.467H264.533V136.533h81.408C363.776,172.544,372.907,209.579,373.163,247.467z"/>
	<path style="fill:#0091EA;" d="M372.821,264.533c-2.475,40.789-14.933,78.421-30.976,110.933h-77.312V264.533H372.821z"/>
</g>
<path style="fill:#2979FF;" d="M494.677,264.533c-1.365,40.363-12.885,78.251-32,111.189c-0.341-0.085-0.683-0.256-1.109-0.256
	h-35.243c19.285-33.024,31.232-70.741,33.792-110.933H494.677z"/>
<path style="fill:#0091EA;" d="M460.117,264.533c-2.56,40.192-14.507,77.909-33.792,110.933h-65.195
	c1.28-2.816,2.56-5.632,3.755-8.533c0.085-0.171,0.171-0.341,0.256-0.512c1.024-2.389,2.048-4.779,2.901-7.253
	c1.195-2.816,2.304-5.632,3.328-8.533c0.256-0.341,0.341-0.683,0.427-1.109c1.365-3.584,2.731-7.339,3.84-11.093
	c1.109-3.243,2.133-6.485,2.987-9.728c1.109-3.499,2.048-6.912,2.901-10.411c2.219-8.619,4.096-17.408,5.376-26.368
	c0.768-4.437,1.365-8.96,1.792-13.568c0.597-4.523,0.939-9.131,1.195-13.824L460.117,264.533L460.117,264.533z"/>
<path style="fill:#2979FF;" d="M451.925,392.533c-39.168,56.064-101.803,94.635-173.483,101.291
	c0.512-0.512,1.024-1.109,1.536-1.621c40.363-12.459,76.544-34.645,105.728-63.829c11.008-11.008,20.992-23.04,29.867-35.84H451.925
	z"/>
<g>
	<path style="fill:#0091EA;" d="M415.573,392.533c-8.875,12.8-18.859,24.832-29.867,35.84
		c-29.184,29.184-65.365,51.371-105.728,63.829c6.827-6.997,15.019-15.872,23.808-26.539c0.256-0.341,0.597-0.768,0.939-1.195h0.085
		c15.445-19.029,32.853-43.349,47.872-71.936H415.573z"/>
	<path style="fill:#0091EA;" d="M332.885,392.533c-23.637,42.155-51.797,73.984-68.352,90.88v-90.88H332.885z"/>
	<path style="fill:#0091EA;" d="M247.467,392.533v90.795c-16.384-16.981-44.203-48.811-67.499-90.795H247.467z"/>
	<path style="fill:#0091EA;" d="M233.728,493.824c-71.765-6.656-134.4-45.141-173.653-101.291h100.096
		C184.576,439.296,215.125,474.709,233.728,493.824z"/>
	<path style="fill:#0091EA;" d="M247.467,264.533v110.933h-76.373c-15.957-32.512-28.331-70.059-30.891-110.933H247.467z"/>
	<path style="fill:#0091EA;" d="M151.808,375.467H49.237c-19.115-32.853-30.549-70.656-31.915-110.933h105.813
		C125.44,305.323,136.789,342.784,151.808,375.467z"/>
	<path style="fill:#0091EA;" d="M147.541,136.533c-16.384,35.925-24.661,72.96-24.832,110.933H17.323
		c1.365-40.277,12.8-78.08,31.915-110.933H147.541z"/>
	<path style="fill:#0091EA;" d="M247.467,136.533v110.933H139.776c0.171-37.973,9.216-75.008,26.709-110.933H247.467z"/>
	<path style="fill:#0091EA;" d="M247.467,29.44v90.027h-71.936C193.109,88.576,217.003,58.539,247.467,29.44z"/>
	<path style="fill:#0091EA;" d="M234.667,18.091c-33.963,32.512-60.16,66.389-78.677,101.376H60.075
		C99.499,63.147,162.475,24.491,234.667,18.091z"/>
</g>
</svg>